<svg width="124" height="124" viewBox="0 0 124 124" fill="none" xmlns="http://www.w3.org/2000/svg">
<circle opacity="0.5" cx="62" cy="62" r="62" fill="#EBF6FF"/>
<circle cx="63" cy="62" r="39" fill="white"/>
<g clip-path="url(#clip0_4959_9609)">
<path fill-rule="evenodd" clip-rule="evenodd" d="M41 61.5C41 55.2674 43.4759 49.2901 47.883 44.883C52.2901 40.4759 58.2674 38 64.5 38C70.7326 38 76.7099 40.4759 81.117 44.883C85.5241 49.2901 88 55.2674 88 61.5C88 67.7326 85.5241 73.7099 81.117 78.117C76.7099 82.5241 70.7326 85 64.5 85C58.2674 85 52.2901 82.5241 47.883 78.117C43.4759 73.7099 41 67.7326 41 61.5ZM44.1333 61.5C44.1337 56.6264 45.8811 51.9144 49.0585 48.219C52.2359 44.5237 56.6328 42.0897 61.4513 41.3589L62.9333 42.1047V43.3016L60.6648 44.4359C60.4197 44.5589 60.2111 44.7441 60.06 44.9729C59.9089 45.2018 59.8205 45.4664 59.8037 45.7401C59.7869 46.0139 59.8422 46.2872 59.9642 46.5329C60.0862 46.7785 60.2705 46.9879 60.4987 47.1399L65.1987 50.2733C65.4561 50.4435 65.7581 50.534 66.0667 50.5333H67.6333C68.0488 50.5333 68.4473 50.3683 68.7411 50.0745C69.0349 49.7807 69.2 49.3822 69.2 48.9667V47.4H70.7667V48.9667C70.7663 49.1725 70.8065 49.3765 70.885 49.5668C70.9635 49.7571 71.0787 49.9301 71.2241 50.0759L72.3333 51.1819V53.0181L71.6847 53.6667H69.5697L63.6352 50.6994C63.4173 50.5902 63.177 50.5334 62.9333 50.5334C62.6897 50.5334 62.4493 50.5902 62.2315 50.6994L59.4303 52.1H55.1C54.7505 52.1001 54.4111 52.217 54.1358 52.4322C53.8604 52.6474 53.6649 52.9485 53.5803 53.2875L52.0137 59.5542C51.9477 59.8166 51.9509 60.0916 52.0228 60.3524C52.0948 60.6133 52.233 60.851 52.4241 61.0425L57.1241 65.7425C57.2434 65.8609 57.3809 65.9593 57.5315 66.0339L59.8 67.1713V70.9C59.7996 71.1059 59.8398 71.3098 59.9183 71.5001C59.9968 71.6905 60.1121 71.8634 60.2575 72.0092L61.3667 73.1153V75.6C61.3667 75.8437 61.4235 76.084 61.5327 76.3019L63.0994 79.4352C63.2296 79.6951 63.4296 79.9136 63.677 80.0664C63.9243 80.2191 64.2093 80.3 64.5 80.3H67.6333C67.8913 80.2999 68.1453 80.236 68.3727 80.1141C68.6001 79.9922 68.7939 79.8161 68.9368 79.6013L72.0701 74.9013C72.1059 74.848 72.1383 74.7925 72.1673 74.7352L73.7339 71.6019C73.8431 71.384 73.9 71.1437 73.9 70.9V68.2899L78.2867 62.44C78.4614 62.2071 78.5677 61.93 78.5937 61.64C78.6197 61.35 78.5644 61.0585 78.4339 60.7981L78.0047 59.9333H80.1698C80.5853 59.9333 80.9838 59.7683 81.2776 59.4745C81.5714 59.1807 81.7365 58.7822 81.7365 58.3667V56.8H84.3246C84.9827 59.5951 85.0423 62.4977 84.4995 65.3174C83.9567 68.1371 82.8237 70.8102 81.175 73.1612C79.5263 75.5122 77.3991 77.488 74.933 78.959C72.4669 80.4299 69.7176 81.3628 66.8656 81.6963C64.0135 82.0298 61.1232 81.7565 58.3842 80.8942C55.6452 80.032 53.1195 78.6003 50.9729 76.6931C48.8262 74.7859 47.1071 72.4463 45.9284 69.8279C44.7497 67.2095 44.1379 64.3715 44.1333 61.5Z" fill="black"/>
</g>
<defs>
<clipPath id="clip0_4959_9609">
<rect width="47" height="47" fill="white" transform="translate(41 38)"/>
</clipPath>
</defs>
</svg>
